<?xml version="1.0" encoding="utf-8"?>
<!-- Generator: Adobe Illustrator 21.1.0, SVG Export Plug-In . SVG Version: 6.00 Build 0)  -->
<svg version="1.1" id="レイヤー_1" xmlns="http://www.w3.org/2000/svg" xmlns:xlink="http://www.w3.org/1999/xlink" x="0px"
	 y="0px" viewBox="0 0 896 1024" style="enable-background:new 0 0 896 1024;" xml:space="preserve">
<style type="text/css">
	.st0{fill:#FFFFFF;}
</style>
<path class="st0" d="M832,192c0,0-320,0-352,0s-32-32-32-32s0-21.2,0-32c0-64-64-64-64-64s-256,0-320,0S0,128,0,128v704h896
	c0,0,0-510,0-576S832,192,832,192z M384,192H64v-32c0,0,0-32,32-32h256c32,0,32,32,32,32V192z"/>
</svg>
