<?xml version="1.0" encoding="utf-8"?>
<!-- Generator: Adobe Illustrator 22.0.1, SVG Export Plug-In . SVG Version: 6.00 Build 0)  -->
<svg version="1.1" id="レイヤー_1" xmlns="http://www.w3.org/2000/svg" xmlns:xlink="http://www.w3.org/1999/xlink" x="0px"
	 y="0px" viewBox="0 0 125 204" style="enable-background:new 0 0 125 204;" xml:space="preserve">
<style type="text/css">
	.st0{fill:#262626;}
</style>
<g>
	<path class="st0" d="M86,53.1c0.5-0.9,1.5-2.3,2.1-1.8s0.9,2,0.5,3.2c-0.5,1.2,1.1,2,0.5,2.9s-2.3,1.4-3.3,1.8
		c-1.1,0.5-1.2-1.7-2.3-1.4c-1.1,0.3-2.3,1.5-2.6,2.7c-0.3,1.2-0.8-0.6-1.5,0c-0.8,0.6-1.5,2.4-1.7,2c-0.1-0.5-1.2-4.7-1.8-5
		c-0.6-0.3-1.7-0.1-1.7-0.6s-0.9-0.6-1.1-1.1c-0.1-0.5-0.5-1.2,0.3-2s1.5-0.6,1.5,0.5s0.6,2.7,1.4,2c0.8-0.8,0.6-1.7,1.4-1.5
		s2,0,2.9-0.8s2.1-0.9,2.4-0.2c0.3,0.8,0.2,1.8,1.4,1.7C85.6,55.3,86,53.1,86,53.1z"/>
	<path class="st0" d="M3,176.3c0.7,0.5,2-0.2,3.2,0.5s2.2,3.4,2.2,4.7c0,1.2,1.7,5.1,2.4,7.1s4.6,1,5.6,0.5s2,0.2,2.2,1.7
		s2.9,2.7,3.9,2.9s2.2-0.7,2.2-0.7s4.6-0.7,5.6-0.5s2.9-1.2,4.2-1.2c1.2,0,2.2,1.7,3.7,2.9c0,0,1.5,0.7,2,2.2s2.9,2.7,3.7,2.7
		c0.7,0,1.5,0.7,1.7,1.5c0.2,0.7,0.2,2.4,1.5,2.4c1.2,0,4.2-1.2,4.2-1.2l3.4-0.5l2.2-0.1c-0.2-0.4-0.2-0.9-0.1-1.8
		c0.1-1,2-3.7,2.3-4.6c0.4-1-0.2-3.5,0-4.4s1.2-0.6,1.7-1.2s2.4-3.3,2.9-3.9c0.5-0.6,0.5-2,1.1-2.7s2.2-3.9,2.2-3.9
		s-0.9-1.6-1.1-2.1s-1.1-0.2-2.4-0.6c-1.3-0.4-1.2-2-1.7-3.1c-0.1-0.3-0.3-0.8-0.5-1.3c-0.8,0.4-1.6,0.7-1.9,0.9
		c0.3-0.2,1.1-0.6,1.9-0.9c-0.5-1.2-1-2.9-1-4.1c0-1.7-0.1-2.1,1.6-3.7c1.7-1.6,0-1.3-0.1-2.2s-0.6-1.5-0.6-3.2s-2.1-2.8-2.6-3.1
		c-0.5-0.2-0.4-2,0-2s2-1.3,2.7-2.6c0.7-1.2-0.4-2.9,0.1-3.6c0.5-0.6,0.2-1.8-0.1-2.2c-0.4-0.4-0.1-1.7,0-2.6c0.1-0.9,0.2-1.5,0.7-2
		s1.3-3.1,1.3-3.9s-1.3-2-2.2-2.1s-0.4-1.8-0.4-2.8s-0.7-3.7-0.6-4.7c0.1-1,0.9-1.2,1.3-1.7c0.5-0.5,0.1-1.6,0.1-1.6
		s0.7-0.4,0.9-1.1c0.1-0.7,1.2-1.3,1.3-1.7s0.1-2-0.2-2.2c-0.4-0.2-0.7-0.2-0.6-1.3c0.1-1.1,0.1-0.5-1.6-2.4c-1.7-2,0.4-2.4,1-2.3
		s1.5-0.6,1.6-1.1s1.3-1.5,1.8-1.6s1.7-2.6,1.3-3.2c-0.4-0.6-1-1.3-0.4-1.7c0.6-0.4,0.7-1.6,0.6-2.3c-0.1-0.7-0.1-2.1,0.4-2.6
		s1-3.7,1.1-4.2s-0.4-1.7,0.5-2.3c0.9-0.6,1.5-2.9,1.2-3.9c-0.2-1-0.1-2.2,0.9-3.7s1.8-1.2,2.7-1.8c0.9-0.6,1.7-2.8,3.4-3.2
		c1.7-0.4,1.5,0.6,2.7,1.1s1.5-1,1.7-1.7s1.5-0.7,2.4-0.5c1,0.2,3.9-0.5,3.9-0.5l1.1,0.9c0.5-1,0.1-3,0.1-6.6
		c0-4.5,0.1-8.3,0.3-10.1c0.2-1.8-0.8-2-0.4-2.6c0.3-0.6,0.9-1.8-0.3-1.4c-1.2,0.5-3.5,1.5-4.1,3.2s0.3,2-0.5,3
		C83.5,66.8,84,66,83.1,66s-0.6,0.3-1.2,0.6c-0.6,0.3-2,1.4-2.6,0.5s0.5-2-0.3-2.1c-0.8-0.2-2.9,0.3-2.4-1.2
		c0.5-1.5,1.2-1.2-0.1-1.4c-1.4-0.1-2.3-0.9-2.9-0.5c-0.6,0.5,0.2,1.5-0.9,2.1c-1.1,0.6-2.4,0.9-3.8,0c-1.4-0.9,0-0.8,0.3-1.5
		c0.3-0.8-0.1-2.1-0.1-3s0.5-1.8,0.8-0.9c0.3,0.9,1.5,0.8,1.8-0.3s0.8-1.5,0.8-2.1s-0.3-1.4-0.8-1.5c-0.5-0.2-1.5,0.6-1.5,0.6
		s-0.5-0.8,0.1-2s2.9-3.9,3.3-5.3c0.5-1.4-0.3-0.9,0.5-1.4s2.3-0.2,2-1.4s-2-1.7-1.5-2.1c0.5-0.5,2.3,1.1,2-0.1
		c-0.3-1.2,0.5-0.8,1.1-0.6s2-1.4,1.5-0.5s-0.5,2.9,0.3,3.6c0.8,0.8,3.5,1.2,3.9,1.8c0.5,0.6,1.4,1.7,2.3,1.1c0.9-0.6,2.1-1.4,2-2.1
		c-0.1-0.8,1.2-1.1,2.4-1.2s0.6-1.5,1.4-3s2.4-2.1,2.6-3.2c0.1-1.1,0.8-3.2,2.6-4.2c1.8-1.1,4.2-1.7,4.2-2.1s1.5-0.3,2.1,0
		s2.9,0.5,3.6,0.2c0.8-0.3,2.4,1.1,3.3,0c0.9-1.1,0.5-1.2,1.2-1.7c0.8-0.5,1.8-2.3,2.1-3.2c0.3-0.9-1.2-0.6-0.8-1.1
		c0.4-0.5,1.4-2.7,0.9-2.4c-0.5,0.3-1.8,0.8-2.1-0.2c-0.3-0.9-0.9-2.6-0.9-2.6s1.4-7.2,3-8.3c1.7-1.1,3.9-0.5,5.9-0.1
		c2,0.3,5.3-1.2,4.4-3.3s-2.7-2.7-1.8-4.4c0.9-1.7,1.5-3,0.1-3.8s-1.7-0.8-2-1.5c-0.3-0.8-1.4-0.6-2.3-0.5s-3.2-0.5-4.2,0
		c-1.1,0.5-1.4,1.2-2.6,1.7s-2,0.9-3.5,1.7s-1.8,0.8-3.3,0.8s-3.3-0.5-6.2,1.5s-6.3,6-6.9,6s-2.3,0-2.9,1.1s-2.9,1.2-4.1,1.8
		s-3.3,2-4.4,2.3c-1.1,0.3-1.8,0.6-2.4,1.4s-3.3,1.5-3.8,0.8c-0.5-0.8,0.1-1.2-1.4-0.9c-1.5,0.3-4.2,0.1-5.4,0.6
		c-1.2,0.5-2.1,2-3.2,2s-1.4,1.2-1.8,1.4c-0.5,0.2-1.7,0-2.3,0.5s-0.6,0.9-1.7,0.9c-1.1,0-1.8,0.8-1.2,1.5c0.6,0.8-0.3,2-0.9,1.8
		c-0.6-0.2-0.9-0.8-1.4,0s0,1.2-0.9,2s-0.5,5.1,0.2,5.6c0.6,0.5-0.2,4.2-1.4,5s-2.3,1.8-2,3s0.1,1.5-0.8,2.4c-0.9,0.9-1.5,2-1.5,3.2
		s-0.3,1.5-0.6,3.8s-0.2,3.3,0.3,3.5s2.1,1.1,2.3,0s1.1-1.8,1.8-1.2c0.8,0.6,2.9,4.1,2,6.5s-1.2,3.5-0.9,5c0.3,1.5,1.1,2.3,1.7,3.2
		c0.6,0.9,1.5,1.7,0.9,3c-0.6,1.4,0.3,1.8,0.8,2.3s1.2-0.6,1.8,2.1s0,5-0.8,6.6c-0.8,1.7-1.2,2.3-0.6,3.3c0,0,1.5,3.2,0.8,6
		c-0.8,2.9-2.7,11.3-5.3,14.9s-8.3,16.3-9.8,17.5c-1.5,1.2-2.3,2-2.3,2.7c0,0.8,2.1,1.5,1.2,1.8c-0.9,0.3-2.4-0.8-2.4-0.8
		s-0.8,0.8-0.9,1.5c-0.2,0.8-9.9,13.1-11.9,15.7c-2,2.6-5.7,8.1-8.6,11s-7.2,7.2-8.9,7.4c-1.7,0.1-3,0.6-3.9,2.4
		c-0.9,1.8-1.8,3.3-2.9,4.4c-0.2,0.2-0.8,0.8-1.7,1.4l1,1.2C1,172.9,2.2,175.8,3,176.3z"/>
</g>
</svg>
