<?xml version="1.0" encoding="utf-8"?>
<!-- Generator: Adobe Illustrator 21.1.0, SVG Export Plug-In . SVG Version: 6.00 Build 0)  -->
<svg version="1.1" id="レイヤー_1" xmlns="http://www.w3.org/2000/svg" xmlns:xlink="http://www.w3.org/1999/xlink" x="0px"
	 y="0px" viewBox="0 0 1055 59" style="enable-background:new 0 0 1055 59;" xml:space="preserve">
<style type="text/css">
	.st0{fill:#FFFFFF;}
</style>
<g>
	<path class="st0" d="M33.6,56.7L13.2,31.3H13v25.4H0V1.6h13V24h0.2L32.9,1.6h16.7L25.8,26.9L51,56.7H33.6z"/>
	<path class="st0" d="M94.3,56.7L90,45.9H68.7l-4,10.8H50.1L73.3,1.6h12.9l22.9,55.1H94.3z M79.5,16.3l-7,18.9h13.9L79.5,16.3z"/>
	<path class="st0" d="M150.2,56.7l-22.2-36h-0.2l0.3,36h-12.9V1.6h15.2l22.1,36h0.2l-0.3-36h12.9v55.1H150.2z"/>
	<path class="st0" d="M214.1,56.7l-4.3-10.8h-21.3l-4,10.8h-14.5l23.1-55.1H206l22.9,55.1H214.1z M199.3,16.3l-7,18.9h13.9
		L199.3,16.3z"/>
	<path class="st0" d="M230.8,56.7V45.1L257,12.8h-25.6V1.6h42.3v10.7l-26.9,32.9h27.4v11.5H230.8z"/>
	<path class="st0" d="M320.3,56.7L316,45.9h-21.3l-4,10.8h-14.5l23.1-55.1h12.9L335,56.7H320.3z M305.5,16.3l-7,18.9h13.9
		L305.5,16.3z"/>
	<path class="st0" d="M394.9,56.7h-13.2l-10.9-37.3h-0.2l-10.9,37.3h-13.2L330.8,1.6h14.3l8.7,36.7h0.2l9.8-36.7h13.9l9.9,36.7h0.2
		l8.9-36.7h13.9L394.9,56.7z"/>
	<path class="st0" d="M450.6,56.7l-4.3-10.8H425l-4,10.8h-14.5l23.1-55.1h12.9l22.9,55.1H450.6z M435.8,16.3l-7,18.9h13.9
		L435.8,16.3z"/>
	<path class="st0" d="M524.5,56.7V29h-37.1v27.7h-1.7V1.6h1.7v25.8h37.1V1.6h1.7v55.1H524.5z"/>
	<path class="st0" d="M593.7,29.1c0,4.3-0.7,8.2-2.1,11.7c-1.4,3.6-3.4,6.6-5.9,9.2c-2.5,2.6-5.5,4.6-9,6c-3.5,1.5-7.2,2.2-11.3,2.2
		c-4,0-7.8-0.7-11.3-2.2c-3.5-1.5-6.5-3.5-9-6c-2.5-2.6-4.5-5.6-5.9-9.2c-1.4-3.6-2.1-7.5-2.1-11.7c0-4.3,0.7-8.2,2.1-11.7
		c1.4-3.6,3.4-6.6,5.9-9.2c2.5-2.6,5.5-4.6,9-6c3.5-1.5,7.2-2.2,11.3-2.2c4.1,0,7.9,0.7,11.3,2.2c3.5,1.5,6.4,3.5,9,6
		c2.5,2.6,4.5,5.6,5.9,9.2C592.9,21,593.7,24.9,593.7,29.1z M591.9,29.1c0-3.8-0.6-7.4-1.9-10.8c-1.3-3.3-3.1-6.3-5.5-8.8
		c-2.4-2.5-5.2-4.4-8.4-5.9c-3.3-1.4-6.9-2.1-10.7-2.1c-3.9,0-7.5,0.7-10.7,2.1c-3.3,1.4-6.1,3.4-8.4,5.9c-2.4,2.5-4.2,5.4-5.5,8.8
		c-1.3,3.3-1.9,6.9-1.9,10.8c0,3.8,0.6,7.4,1.9,10.8c1.3,3.3,3.1,6.3,5.4,8.8s5.1,4.5,8.4,5.9c3.3,1.4,6.9,2.1,10.9,2.1
		c4,0,7.6-0.7,10.9-2.1c3.3-1.4,6.1-3.4,8.4-5.9s4.1-5.4,5.4-8.8C591.3,36.5,591.9,33,591.9,29.1z"/>
	<path class="st0" d="M656.7,56.7V3.5h-0.3L632,56.7h-1.4L606.3,3.5h-0.2v53.2h-1.7V1.6h3l24,52.6l24-52.6h3v55.1H656.7z"/>
	<path class="st0" d="M671.8,56.7V1.6H704v1.6h-30.4v24.2h28.6v1.6h-28.6v26.2h31.7v1.6H671.8z"/>
	<path class="st0" d="M746.6,15.3c0,2.3-0.4,4.4-1.3,6.2s-2,3.3-3.5,4.5c-1.5,1.2-3.2,2.1-5.1,2.7c-1.9,0.6-4,0.9-6.2,0.9h-14.2
		v27.1h-1.7V1.6h14.9c2,0,4,0.2,6,0.7c2,0.4,3.9,1.2,5.5,2.2c1.6,1,3,2.4,4,4.2C746.1,10.4,746.6,12.6,746.6,15.3z M744.9,15.3
		c0-2.3-0.4-4.3-1.3-5.8c-0.9-1.6-2-2.8-3.4-3.7s-3-1.6-4.7-2C733.7,3.2,732,3,730.3,3h-13.9v25.1h14.3c1.7,0,3.4-0.2,5.1-0.7
		c1.7-0.5,3.2-1.2,4.6-2.3c1.3-1,2.4-2.4,3.3-4S744.9,17.5,744.9,15.3z"/>
	<path class="st0" d="M796.4,56.7l-6.5-15.8h-32l-6.8,15.8h-1.9l23.9-55.1h2.2l23,55.1H796.4z M774.1,2.6l-15.6,36.7h30.8L774.1,2.6
		z"/>
	<path class="st0" d="M842.7,56.8c-3.3,1-7.2,1.5-11.5,1.5c-4.4,0-8.3-0.8-11.9-2.3c-3.6-1.5-6.7-3.6-9.2-6.2
		c-2.5-2.6-4.5-5.7-5.9-9.3c-1.4-3.6-2.1-7.4-2.1-11.6c0-4.2,0.7-8,2.1-11.6c1.4-3.6,3.4-6.6,5.9-9.2c2.5-2.6,5.5-4.6,9.1-6
		c3.5-1.5,7.4-2.2,11.7-2.2c3.7,0,7.2,0.6,10.3,1.7c3.1,1.1,5.9,2.7,8.3,4.7l-1.2,1.2c-1-1-2.2-1.9-3.6-2.6
		c-1.4-0.8-2.8-1.4-4.4-1.9c-1.5-0.5-3.1-0.9-4.7-1.2c-1.6-0.3-3.2-0.4-4.7-0.4c-4,0-7.7,0.7-11.1,2.1c-3.3,1.4-6.2,3.4-8.5,5.9
		c-2.4,2.5-4.2,5.4-5.4,8.7c-1.3,3.3-1.9,6.9-1.9,10.7c0,3.8,0.6,7.4,1.9,10.7c1.2,3.4,3,6.3,5.4,8.8c2.4,2.5,5.2,4.5,8.6,6
		c3.4,1.5,7.3,2.2,11.6,2.2c3.7,0,7.1-0.4,10-1.2c2.9-0.8,5.6-1.8,8-3V30.9H835v-1.5h16v24.1C848.8,54.7,846.1,55.8,842.7,56.8z"/>
	<path class="st0" d="M863.5,56.7V1.6h32.2v1.6h-30.4v24.2h28.6v1.6h-28.6v26.2h31.7v1.6H863.5z"/>
	<path class="st0" d="M907.4,57.1c-0.5,0-0.9-0.2-1.2-0.5c-0.4-0.4-0.5-0.9-0.5-1.5c0-0.6,0.2-1,0.5-1.4c0.4-0.4,0.8-0.5,1.2-0.5
		c0.5,0,0.9,0.2,1.2,0.5c0.4,0.4,0.5,0.8,0.5,1.4c0,0.6-0.2,1.1-0.6,1.5C908.3,57,907.9,57.1,907.4,57.1z"/>
	<path class="st0" d="M947.1,25.7c-1.3-1.4-2.9-2.5-4.7-3.3c-1.8-0.8-3.7-1.2-5.7-1.2c-2.5,0-4.8,0.5-6.9,1.4c-2,1-3.8,2.2-5.2,3.9
		c-1.4,1.6-2.5,3.5-3.3,5.6c-0.8,2.1-1.2,4.4-1.2,6.7s0.4,4.6,1.2,6.7c0.8,2.1,1.9,4,3.3,5.6c1.4,1.6,3.2,2.8,5.2,3.8
		c2,0.9,4.3,1.4,6.9,1.4c2,0,3.9-0.3,5.8-1c1.9-0.7,3.5-1.7,4.9-3l1.2,1.1c-1.6,1.6-3.4,2.7-5.5,3.4s-4.2,1.1-6.4,1.1
		c-2.6,0-5.1-0.5-7.3-1.4c-2.2-0.9-4.1-2.2-5.8-3.9c-1.6-1.7-2.9-3.7-3.8-6c-0.9-2.3-1.4-4.9-1.4-7.6c0-2.8,0.5-5.3,1.4-7.6
		c0.9-2.3,2.2-4.3,3.8-6c1.6-1.7,3.6-3,5.8-4c2.2-1,4.6-1.4,7.3-1.4c2.3,0,4.4,0.4,6.5,1.2c2,0.8,3.8,2,5.3,3.5L947.1,25.7z"/>
	<path class="st0" d="M990.2,38.7c0,2.8-0.5,5.4-1.4,7.7c-0.9,2.3-2.2,4.3-3.9,6c-1.7,1.7-3.6,3-6,3.9c-2.3,0.9-4.8,1.4-7.6,1.4
		c-2.8,0-5.3-0.5-7.6-1.4c-2.3-0.9-4.3-2.2-5.9-3.9c-1.7-1.7-2.9-3.7-3.9-6c-0.9-2.3-1.4-4.9-1.4-7.7c0-2.8,0.5-5.4,1.4-7.7
		c0.9-2.3,2.2-4.3,3.9-6c1.7-1.7,3.6-3,5.9-3.9c2.3-0.9,4.8-1.4,7.6-1.4c2.8,0,5.3,0.5,7.6,1.4c2.3,0.9,4.3,2.2,6,3.9
		c1.7,1.7,2.9,3.6,3.9,6C989.7,33.3,990.2,35.9,990.2,38.7z M988.5,38.7c0-2.4-0.4-4.6-1.2-6.8c-0.8-2.1-1.9-4-3.4-5.6
		c-1.5-1.6-3.3-2.8-5.4-3.7c-2.1-0.9-4.5-1.4-7.1-1.4s-5,0.5-7.1,1.4c-2.1,0.9-3.9,2.2-5.3,3.7c-1.5,1.6-2.6,3.4-3.4,5.6
		c-0.8,2.1-1.2,4.4-1.2,6.8c0,2.4,0.4,4.7,1.2,6.9c0.8,2.1,1.9,4,3.4,5.6c1.5,1.6,3.3,2.8,5.3,3.8c2.1,0.9,4.4,1.4,7.1,1.4
		s5-0.5,7.1-1.4c2.1-0.9,3.9-2.2,5.4-3.8c1.5-1.6,2.6-3.4,3.4-5.6C988.1,43.4,988.5,41.1,988.5,38.7z"/>
	<path class="st0" d="M1027.2,30.7c1-3.5,2.8-6.2,5.3-8.1c2.5-1.9,5.3-2.8,8.5-2.8c2.4,0,4.4,0.4,6,1.3c1.6,0.9,2.9,2.1,3.9,3.5
		c1,1.5,1.6,3.1,2.1,4.9c0.4,1.8,0.6,3.7,0.6,5.5v21.6h-1.7V35.2c0-1.5-0.2-3-0.5-4.7c-0.3-1.7-0.9-3.2-1.8-4.5
		c-0.8-1.3-1.9-2.5-3.3-3.4c-1.4-0.9-3.2-1.4-5.3-1.4c-1.9,0-3.6,0.4-5.3,1.2c-1.6,0.8-3.1,2-4.3,3.5c-1.2,1.5-2.2,3.3-2.9,5.5
		c-0.7,2.2-1.1,4.6-1.1,7.4v17.9h-1.7V35.2c0-1.5-0.1-3-0.4-4.7c-0.3-1.7-0.8-3.2-1.6-4.5c-0.8-1.3-1.9-2.5-3.2-3.4
		c-1.4-0.9-3.1-1.4-5.3-1.4c-1.9,0-3.6,0.4-5.3,1.2c-1.6,0.8-3.1,2-4.3,3.5c-1.2,1.5-2.2,3.3-2.9,5.5c-0.7,2.2-1.1,4.6-1.1,7.4v17.9
		h-1.7V29.9c0-0.6,0-1.3,0-2.1c0-0.8-0.1-1.7-0.1-2.5c0-0.9-0.1-1.7-0.1-2.5c-0.1-0.8-0.1-1.4-0.2-1.9h1.7c0.1,0.5,0.1,1.2,0.1,1.9
		c0,0.8,0.1,1.6,0.1,2.5c0,0.9,0.1,1.8,0.1,2.6c0,0.9,0,1.6,0,2.3h0.2c0.5-1.7,1.2-3.1,2.2-4.4c0.9-1.3,2-2.4,3.2-3.3
		c1.2-0.9,2.4-1.6,3.8-2.1c1.4-0.5,2.8-0.7,4.2-0.7c1.9,0,3.5,0.3,4.9,0.9c1.4,0.6,2.5,1.4,3.5,2.3c0.9,1,1.7,2.1,2.3,3.5
		c0.6,1.3,1,2.8,1.2,4.3H1027.2z"/>
</g>
</svg>
