<?xml version="1.0" encoding="utf-8"?>
<!-- Generator: Adobe Illustrator 21.1.0, SVG Export Plug-In . SVG Version: 6.00 Build 0)  -->
<svg version="1.1" id="レイヤー_1" xmlns="http://www.w3.org/2000/svg" xmlns:xlink="http://www.w3.org/1999/xlink" x="0px"
	 y="0px" viewBox="0 0 414 250" style="enable-background:new 0 0 414 250;" xml:space="preserve">
<style type="text/css">
	.st0{fill:#2E3B4E;}
</style>
<g>
	<rect class="st0" width="45.9" height="247.6"/>
	<g>
		<path class="st0" d="M87.2,0.4h8v15.1l14.1-15.1h10.5l-16.2,16.9l17.6,19.5H110L95.2,19.5v17.3h-8V0.4z"/>
		<path class="st0" d="M140.1,0.4h6.6l15.8,36.4h-9l-3.1-7.7h-14.1l-3,7.7h-8.8L140.1,0.4z M143.2,11l-4.4,11.3h8.9L143.2,11z"/>
		<path class="st0" d="M167.2,0.4h10.9l15.5,25.3h0.1V0.4h8v36.4h-10.5l-15.9-25.9h-0.1v25.9h-8V0.4z"/>
		<path class="st0" d="M224.2,0.4h6.6l15.8,36.4h-9l-3.1-7.7h-14.1l-3,7.7h-8.8L224.2,0.4z M227.3,11l-4.4,11.3h8.9L227.3,11z"/>
		<path class="st0" d="M252.5,29.4L271,7.5h-17.8V0.4h27.5v7.1l-18.1,21.9h18.7v7.4h-28.8V29.4z"/>
		<path class="st0" d="M301.8,0.4h6.6l15.8,36.4h-9l-3.1-7.7H298l-3,7.7h-8.8L301.8,0.4z M304.9,11l-4.4,11.3h8.9L304.9,11z"/>
		<path class="st0" d="M322.1,0.4h8.7l5.8,23.3h0.1l7.6-23.3h7.5l7.6,24h0.1l6.1-24h8.1l-10.6,36.4h-7.1l-8-25.2h-0.1l-8,25.2h-6.9
			L322.1,0.4z"/>
		<path class="st0" d="M388.2,0.4h6.6l15.8,36.4h-9l-3.1-7.7h-14.1l-3,7.7h-8.8L388.2,0.4z M391.3,11l-4.4,11.3h8.9L391.3,11z"/>
		<path class="st0" d="M86.9,66.2h8v13.6h15.6V66.2h8v36.4h-8V86.9H94.9v15.7h-8V66.2z"/>
		<path class="st0" d="M127,84.4c0-2.9,0.5-5.6,1.5-7.9c1-2.4,2.3-4.4,4.1-6c1.7-1.7,3.8-2.9,6.2-3.8c2.4-0.9,5-1.3,7.9-1.3
			c2.8,0,5.5,0.4,7.9,1.3c2.4,0.9,4.5,2.2,6.2,3.8c1.7,1.7,3.1,3.7,4.1,6c1,2.4,1.5,5,1.5,7.9c0,2.9-0.5,5.6-1.5,7.9s-2.3,4.4-4.1,6
			s-3.8,2.9-6.2,3.8c-2.4,0.9-5,1.3-7.9,1.3c-2.8,0-5.5-0.4-7.9-1.3c-2.4-0.9-4.5-2.2-6.2-3.8s-3.1-3.7-4.1-6
			C127.5,89.9,127,87.3,127,84.4z M135.4,84.4c0,1.7,0.3,3.3,0.8,4.7s1.3,2.7,2.3,3.7c1,1,2.2,1.9,3.6,2.4c1.4,0.6,2.9,0.9,4.7,0.9
			c1.7,0,3.3-0.3,4.7-0.9c1.4-0.6,2.6-1.4,3.6-2.4c1-1,1.8-2.3,2.3-3.7c0.5-1.4,0.8-3,0.8-4.7c0-1.7-0.3-3.2-0.8-4.7
			c-0.5-1.4-1.3-2.7-2.3-3.7c-1-1-2.2-1.9-3.6-2.4c-1.4-0.6-2.9-0.9-4.7-0.9c-1.7,0-3.3,0.3-4.7,0.9c-1.4,0.6-2.6,1.4-3.6,2.4
			c-1,1-1.8,2.3-2.3,3.7C135.6,81.1,135.4,82.7,135.4,84.4z"/>
		<path class="st0" d="M174.8,66.2H187l8.4,23.7h0.1l8.4-23.7H216v36.4h-8V74.7h-0.1l-9.6,27.9h-6.1L183,74.7h-0.1v27.9h-8V66.2z"/>
		<path class="st0" d="M227.8,66.2h24.7v7.4h-16.7v6.8h15.8v7.4h-15.8v7.4h17.6v7.4h-25.6V66.2z"/>
		<path class="st0" d="M265,66.2h13.5c1.9,0,3.7,0.2,5.3,0.5c1.7,0.3,3.1,0.9,4.4,1.8c1.3,0.8,2.2,2,3,3.4c0.7,1.4,1.1,3.2,1.1,5.4
			c0,2.1-0.3,3.9-1,5.3c-0.7,1.4-1.6,2.6-2.8,3.4c-1.2,0.9-2.6,1.5-4.3,1.8c-1.6,0.4-3.4,0.5-5.3,0.5H273v14.2h-8V66.2z M273,81.6
			h5.3c0.7,0,1.4-0.1,2.1-0.2c0.7-0.1,1.3-0.4,1.8-0.7c0.5-0.3,1-0.8,1.3-1.3c0.3-0.6,0.5-1.3,0.5-2.1c0-0.9-0.2-1.7-0.6-2.2
			c-0.4-0.6-1-1-1.6-1.3c-0.7-0.3-1.4-0.5-2.2-0.6c-0.8-0.1-1.6-0.1-2.4-0.1H273V81.6z"/>
		<path class="st0" d="M312.4,66.2h6.6l15.8,36.4h-9l-3.1-7.7h-14.1l-3,7.7h-8.8L312.4,66.2z M315.5,76.8l-4.4,11.3h8.9L315.5,76.8z
			"/>
		<path class="st0" d="M375.6,100c-2.4,1.2-4.8,2.1-7.4,2.7c-2.6,0.5-5.2,0.8-7.9,0.8c-2.8,0-5.5-0.4-7.9-1.3
			c-2.4-0.9-4.5-2.2-6.2-3.8s-3.1-3.7-4.1-6s-1.5-5-1.5-7.9c0-2.9,0.5-5.6,1.5-7.9c1-2.4,2.3-4.4,4.1-6c1.7-1.7,3.8-2.9,6.2-3.8
			c2.4-0.9,5-1.3,7.9-1.3c2.9,0,5.6,0.4,8,1.1c2.4,0.7,4.6,1.9,6.4,3.6l-5.7,6.2c-1.1-1.1-2.3-2-3.7-2.6c-1.4-0.6-3.1-0.9-5.1-0.9
			c-1.7,0-3.3,0.3-4.7,0.9c-1.4,0.6-2.6,1.4-3.6,2.4c-1,1-1.8,2.3-2.3,3.7c-0.5,1.4-0.8,3-0.8,4.7c0,1.7,0.3,3.3,0.8,4.7
			s1.3,2.7,2.3,3.7c1,1,2.2,1.9,3.6,2.4c1.4,0.6,2.9,0.9,4.7,0.9c1.7,0,3.3-0.2,4.5-0.6c1.3-0.4,2.3-0.8,3-1.2v-5.9h-6.5V81h14.2
			V100z"/>
		<path class="st0" d="M387.1,66.2h24.7v7.4h-16.7v6.8h15.8v7.4h-15.8v7.4h17.6v7.4h-25.6V66.2z"/>
		<path class="st0" d="M86.1,163.9c0-0.7,0.1-1.3,0.4-1.9c0.2-0.6,0.6-1.1,1-1.5c0.4-0.4,0.9-0.8,1.5-1c0.6-0.2,1.2-0.4,1.9-0.4
			c0.7,0,1.3,0.1,1.9,0.4c0.6,0.2,1.1,0.6,1.5,1c0.4,0.4,0.8,0.9,1,1.5c0.2,0.6,0.4,1.2,0.4,1.9s-0.1,1.3-0.4,1.8
			c-0.2,0.6-0.6,1.1-1,1.5c-0.4,0.4-0.9,0.8-1.5,1c-0.6,0.2-1.2,0.4-1.9,0.4c-0.7,0-1.3-0.1-1.9-0.4c-0.6-0.2-1.1-0.6-1.5-1
			c-0.4-0.4-0.8-0.9-1-1.5C86.2,165.2,86.1,164.6,86.1,163.9z"/>
		<path class="st0" d="M128,141.4c-0.8-1-1.8-1.7-2.9-2.2c-1.1-0.5-2.5-0.8-4-0.8c-1.5,0-2.9,0.3-4.2,0.9s-2.4,1.4-3.3,2.4
			c-0.9,1-1.7,2.3-2.2,3.7c-0.5,1.4-0.8,3-0.8,4.7c0,1.7,0.3,3.3,0.8,4.7s1.3,2.7,2.2,3.7s2,1.9,3.3,2.4c1.2,0.6,2.6,0.9,4,0.9
			c1.6,0,3.1-0.3,4.4-1c1.3-0.7,2.3-1.6,3.1-2.9l6.7,5c-1.5,2.2-3.5,3.8-5.9,4.8c-2.4,1-4.8,1.5-7.3,1.5c-2.8,0-5.5-0.4-7.9-1.3
			c-2.4-0.9-4.5-2.2-6.2-3.8s-3.1-3.7-4.1-6c-1-2.4-1.5-5-1.5-7.9c0-2.9,0.5-5.6,1.5-7.9s2.3-4.4,4.1-6c1.7-1.7,3.8-2.9,6.2-3.8
			c2.4-0.9,5-1.3,7.9-1.3c1,0,2.1,0.1,3.2,0.3c1.1,0.2,2.2,0.5,3.3,0.9c1.1,0.4,2.1,1,3.1,1.6c1,0.7,1.9,1.5,2.7,2.5L128,141.4z"/>
		<path class="st0" d="M139.5,150.2c0-2.9,0.5-5.6,1.5-7.9s2.3-4.4,4.1-6c1.7-1.7,3.8-2.9,6.2-3.8c2.4-0.9,5-1.3,7.9-1.3
			c2.8,0,5.5,0.4,7.9,1.3c2.4,0.9,4.5,2.2,6.2,3.8c1.7,1.7,3.1,3.7,4.1,6s1.5,5,1.5,7.9c0,2.9-0.5,5.6-1.5,7.9c-1,2.4-2.3,4.4-4.1,6
			s-3.8,2.9-6.2,3.8c-2.4,0.9-5,1.3-7.9,1.3c-2.8,0-5.5-0.4-7.9-1.3c-2.4-0.9-4.5-2.2-6.2-3.8s-3.1-3.7-4.1-6
			C140,155.7,139.5,153.1,139.5,150.2z M147.8,150.2c0,1.7,0.3,3.3,0.8,4.7s1.3,2.7,2.3,3.7c1,1,2.2,1.9,3.6,2.4s2.9,0.9,4.7,0.9
			c1.7,0,3.3-0.3,4.7-0.9c1.4-0.6,2.6-1.4,3.6-2.4c1-1,1.8-2.3,2.3-3.7c0.5-1.4,0.8-3,0.8-4.7c0-1.7-0.3-3.2-0.8-4.7
			c-0.5-1.4-1.3-2.7-2.3-3.7c-1-1-2.2-1.9-3.6-2.4c-1.4-0.6-2.9-0.9-4.7-0.9c-1.7,0-3.3,0.3-4.7,0.9s-2.6,1.4-3.6,2.4
			c-1,1-1.8,2.3-2.3,3.7C148.1,146.9,147.8,148.5,147.8,150.2z"/>
		<path class="st0" d="M186.2,132h12.1l8.4,23.7h0.1l8.4-23.7h12.1v36.4h-8v-27.9h-0.1l-9.6,27.9h-6.1l-9.2-27.9h-0.1v27.9h-8V132z"
			/>
	</g>
	<rect x="87.6" y="195.6" class="st0" width="325" height="2"/>
	<g>
		<path class="st0" d="M112.3,233.9c-3.4-1.5-8.8-4.8-12.3-9.2c-4.4,5.2-9.9,8.1-11.9,9.2c-0.2-0.3-1-1.3-1.9-2
			c6.8-2.9,11-7,13.1-10.2l2.6,0.4c0.3,0,0.5,0.2,0.5,0.4c0,0.3-0.5,0.4-0.9,0.5c3.2,3.7,7.6,6.8,12.5,8.8
			C113.7,232,112.8,233,112.3,233.9z M87.7,247.9v-2.2h11.2v-7.4h-9.9v-2.2h9.9v-3.3h-5.1v-2.2h12.7v2.2h-5v3.3h9.9v2.2h-9.9v7.4
			h11.1v2.2H87.7z M94.6,245.2c-0.8-1.8-2-3.7-2.8-4.8l2-1.2c0.9,1.2,2.3,3.4,2.9,4.7C95.8,244.4,95.7,244.5,94.6,245.2z
			 M108.4,241.1c-0.3,0.6-0.8,1.5-2.6,4.3c-0.4-0.3-1-0.8-2.1-1.3c1.2-1.7,2.3-3.5,2.9-4.8l2.2,1c0.3,0.1,0.4,0.3,0.4,0.4
			C109.2,241.1,108.7,241.1,108.4,241.1z"/>
		<path class="st0" d="M122.7,234.6c-1.2-1.1-3.6-2.9-4.9-3.6l1.3-1.9c1.3,0.7,3.6,2.2,5.1,3.5C123.2,233.8,123.1,233.9,122.7,234.6
			z M120.6,247.5c0.1,0.1,0.2,0.3,0.2,0.6c0,0.2-0.2,0.3-0.3,0.3c-0.2,0-0.4-0.1-0.6-0.3l-2-1.4c2.2-2.7,4.8-7.4,6.1-10.4
			c0.2,0.3,0.8,0.9,1.8,1.5C125.6,238.4,124.2,241.9,120.6,247.5z M124.6,227.7c-1.7-1.6-3.7-2.9-5-3.7l1.6-2c0.5,0.3,3.6,2.5,5,3.7
			C125.7,226.2,125.4,226.6,124.6,227.7z M143.7,248.7c-0.3-0.2-6.8-4.8-9-14.9h-3.2c-0.3,6.8-2.7,11.8-5.4,14.9
			c-1.3-0.7-1.4-0.8-2.4-1.1c4.8-5.1,5.5-10.7,5.5-16.6v-7.5h14.7v10.3H137c1.5,7.4,6.5,11.6,8.6,13.1
			C144.6,247.6,143.9,248.5,143.7,248.7z M141.5,225.7h-9.9v6h9.9V225.7z"/>
		<path class="st0" d="M158.3,236.3c-2.2,3.7-3.8,5.6-6.5,8.2c-0.7-0.6-1.3-1-2.2-1.6c3-2.3,5.3-5.4,6.8-8.7l2.2,1.3
			c0.3,0.1,0.4,0.4,0.4,0.5C159.1,236.2,158.8,236.3,158.3,236.3z M164.4,231.6v11.9c0,2.4,0,4.1-4.5,4.1c-0.6,0-1.3-0.1-2-0.1
			c-0.1-0.6-0.2-1.3-0.7-2.6c0.6,0.1,1.7,0.3,3.1,0.3c1.6,0,1.6-0.6,1.6-2.5v-11.2h-10.5v-2.3h10.5v-6.5l2.5,0.1
			c0.3,0,0.6,0,0.6,0.3s-0.3,0.4-0.5,0.5v5.6h10.3v2.3H164.4z M174.1,244.1c-1.3-2.5-4-6.2-6.4-8.5l1.9-1.5c2.2,2.2,5.3,6,6.5,8.3
			C175.1,243,174.3,243.9,174.1,244.1z"/>
		<path class="st0" d="M180,236.7v-2.6h24.8v2.6H180z"/>
		<path class="st0" d="M232.3,246.3c-0.4-0.8-0.9-2.3-1.9-4.1c-12.1,2.2-12.3,2.3-20.1,3.3c-0.1,0.3-0.2,0.5-0.5,0.5
			c-0.3,0-0.4-0.2-0.4-0.5l-0.6-2.4c0.8,0,1.4-0.1,3.1-0.2c2.5-4.8,5.8-13.1,7.3-19.9l2.6,0.7c0.4,0.1,0.6,0.2,0.6,0.4
			c0,0.4-0.4,0.5-0.7,0.6c-0.3,0.9-2.4,7.1-2.7,8c-0.2,0.6-2.5,6.7-4.2,9.9c4.7-0.6,9.4-1.2,14.5-2.3c-1.4-2.4-3.1-4.5-5-6.5
			l2.1-1.4c3.1,3.3,6.9,9.1,8,12.2C234.2,244.7,233,245.5,232.3,246.3z"/>
		<path class="st0" d="M263.1,243.6c-1.8-1.6-5.2-4.8-10-10.7c-3-3.7-3.3-4.1-4.4-4.1c-0.9,0-1.6,0.8-3.1,2.5
			c-1.6,1.8-5,5.9-5.7,6.8c0,0.3,0,0.7-0.4,0.7c-0.1,0-0.3-0.1-0.4-0.3l-1.8-1.9c1.9-1.4,3.3-3,5.3-5.3c3.4-4.1,4.4-5,6.2-5
			c1.9,0,2.9,1.2,6,5c2.9,3.7,6.3,7,9.9,10.1C264.2,241.9,263.5,242.8,263.1,243.6z M259.6,227.4c-1.4,0-2.6-1.2-2.6-2.6
			c0-1.5,1.2-2.6,2.6-2.6c1.5,0,2.6,1.1,2.6,2.6C262.2,226.2,261,227.4,259.6,227.4z M259.6,223.3c-0.8,0-1.5,0.7-1.5,1.5
			c0,0.9,0.7,1.5,1.5,1.5c0.8,0,1.5-0.7,1.5-1.5C261.1,224,260.4,223.3,259.6,223.3z"/>
		<path class="st0" d="M267.6,236.7v-2.6h24.8v2.6H267.6z"/>
		<path class="st0" d="M305.1,235.5c-3-2.3-6.6-3.7-7.5-4.1l1.5-2.1c2,0.8,5.6,2.5,7.6,3.9C305.8,234.2,305.3,235.1,305.1,235.5z
			 M301.6,247.5c0,0.3-0.1,0.7-0.4,0.7c-0.2,0-0.4-0.2-0.5-0.4l-1.2-2.3c8.8-3,16.4-8.7,21.5-16.5c0.8,1.1,0.8,1.2,1.7,2.1
			C315.4,241.9,304.3,246.5,301.6,247.5z M308.6,228.7c-2.8-2-5.6-3.2-7.9-4l1.5-2c2.4,0.8,5.2,2,7.9,3.8
			C309.5,227.1,308.9,228,308.6,228.7z M318.2,227.4c-0.3-0.3-1.7-1.7-3.2-2.8l1.3-1.3c0.7,0.6,2.2,1.7,3.2,2.7
			C319,226.6,318.9,226.6,318.2,227.4z M320.6,225.3c-0.4-0.4-1.6-1.8-3.2-2.9l1.3-1.1c1,0.7,2.4,2,3.2,2.8
			C321.4,224.4,320.8,225,320.6,225.3z"/>
		<path class="st0" d="M334.4,233.7v2.7h5.5v7.7c0,2.5-1.5,2.7-3.6,2.7c-0.1-0.7-0.3-1.4-1-2.4c0.9,0.1,1,0.1,1.4,0.1
			c0.9,0,0.9-0.3,0.9-1.3v-4.6h-3.2v10.2h-2.3v-10.2H329v8.5h-2.4v-10.7h5.4v-2.7h-7.2v-2.2h7.2v-3.3h-4c-0.3,0.6-0.6,1.1-1.2,2.3
			c-0.7-0.4-1.6-0.8-2.2-0.8c1.2-1.7,2.5-4.6,3-6.6l2.2,0.5c0.1,0,0.6,0.1,0.6,0.4s-0.5,0.4-0.8,0.4c-0.2,0.6-0.3,0.9-0.6,1.6h3
			v-3.9l2.3,0.1c0.2,0,0.7,0.1,0.7,0.4c0,0.3-0.3,0.4-0.7,0.5v2.9h5.9v2.2h-5.9v3.3h6.7v2.2H334.4z M344.8,226.4v16.1h-2.4v-17.2
			l2.4,0.2c0.3,0,0.7,0.1,0.7,0.4C345.6,226.1,345.3,226.2,344.8,226.4z M350.5,223.1v21.6c0,3.3-0.8,4.1-5.5,4.1
			c-0.1-0.5-0.2-1.3-1-2.5c0.7,0.1,1.4,0.2,2.3,0.2c1.7,0,1.7-0.6,1.7-2V222l2.4,0.1c0.2,0,0.8,0.1,0.8,0.4
			C351.3,222.7,351,222.9,350.5,223.1z"/>
		<path class="st0" d="M360.6,248.8h-2.4v-16.1c-1.1,1.5-1.9,2.3-2.6,3.1c-0.6-0.6-1.4-1.2-2.1-1.5c3.6-3.4,6.4-8.3,7.6-12.4
			l2.6,0.8c0.2,0.1,0.4,0.1,0.4,0.4c0,0.4-0.4,0.4-0.8,0.4c-1,2.4-1.7,3.9-2.8,5.8c0.7,0.3,1,0.4,1,0.6c0,0.4-0.5,0.4-0.8,0.5V248.8
			z M372.2,233.4h7.8v2.2h-7.8v4.1h8.5v2.3h-8.5v6.8h-2.5V229h-1.5c-1.7,3.1-3.7,5.3-4.5,6.2c-0.6-0.6-1.3-1-2.1-1.3
			c4.6-4.7,6.3-9.2,7.1-12l2.4,0.7c0.3,0.1,0.6,0.2,0.6,0.4c0,0.3-0.4,0.4-0.9,0.4c-0.7,2-1.1,2.8-1.4,3.4h11.6v2.2h-8.8V233.4z"/>
	</g>
</g>
</svg>
