<?xml version="1.0" encoding="utf-8"?>
<!-- Generator: Adobe Illustrator 21.1.0, SVG Export Plug-In . SVG Version: 6.00 Build 0)  -->
<svg version="1.1" id="レイヤー_1" xmlns="http://www.w3.org/2000/svg" xmlns:xlink="http://www.w3.org/1999/xlink" x="0px"
	 y="0px" viewBox="0 0 274 98" style="enable-background:new 0 0 274 98;" xml:space="preserve">
<style type="text/css">
	.st0{fill:#FFFFFF;}
</style>
<g>
	<path class="st0" d="M92.2,88.4l-23.1-24c5.9-7.1,9.2-15.9,9.2-25.2C78.3,17.6,60.8,0,39.2,0S0,17.6,0,39.2s17.6,39.2,39.2,39.2
		c8.1,0,15.8-2.4,22.4-7.1l23.3,24.2c1,1,2.3,1.6,3.7,1.6c1.3,0,2.6-0.5,3.5-1.4C94.1,93.6,94.2,90.4,92.2,88.4z M39.2,10.2
		c16,0,28.9,13,28.9,28.9s-13,28.9-28.9,28.9s-28.9-13-28.9-28.9S23.2,10.2,39.2,10.2z"/>
	<g>
		<path class="st0" d="M138.3,60.4c-1.2-2-3.7-7.3-6.3-13v39.8h-5.9V48c-3.3,10.4-7.2,18-9,21.1c-2.7-3.5-4-4.3-4.9-4.9
			c5.3-6.9,10.8-18.6,13.5-30.4h-11.6v-5.5h12V13.1l5.8,0.4c0.7,0.1,2,0.2,2,1c0,0.6-0.5,0.8-1.9,1.4v12.4h10v5.5h-10v4
			c3.9,10.2,9.6,16.2,10.9,17.5C140.6,57.3,139.9,58.2,138.3,60.4z M186.4,39.9c-4.3-2.7-5.8-3.8-8.8-6.2v4.6h-9.2v6.2h16.5V65H169
			c6,10.4,16.1,14.9,19.8,16.2c-2.8,2.4-3.6,4-4.2,5.5c-8.4-4.1-15.6-10.4-20-18.8c-6.6,12.2-18.7,17.5-22.1,19
			c-1.3-2.8-3.6-4.8-4.4-5.5c10.7-3.1,18.1-9.1,21.7-16.5h-14.3V44.4h16.5v-6.2h-8.2v-4.5c-3.5,3.5-4.3,4.4-8,7.1
			c-1.4-1.6-2.6-2.7-5.4-4.2c13.6-9,19.7-19.2,22.2-24.3l6.3,1.8c0.8,0.2,1.7,0.6,1.7,1.2c0,0.8-0.8,0.9-2.3,1.2
			c2.3,3.6,10.8,12.8,21.9,18.2C188.7,36.2,187.3,37.8,186.4,39.9z M151.9,50v9.6h9.6c0.3-1.8,0.6-4.2,0.6-9.6H151.9z M165.1,20.4
			c-4.1,5.8-5.9,7.8-10.1,12.2h21.4C169.6,26.9,166.7,22.8,165.1,20.4z M178.6,50h-10.3c0,3.3-0.2,6.7-0.7,9.6h11V50z"/>
		<path class="st0" d="M266.9,72.5c-2.3-4-3.1-5.3-5.1-8c-12.8,1-14.2,1.1-21.8,1.6v21.1h-6.8V66.5c-14.4,0.7-19.6,1-29.4,1.4
			c-0.4,1-0.7,1.7-1.5,1.7c-0.7,0-0.8-0.2-1.1-1.8l-1.3-6.1c4.3-0.2,22.9-0.7,26.7-0.8c0.6-0.5,0.9-0.7,1.4-1.2
			c-4.4-3-11.6-7.1-19.4-10l3.9-5.1c1.4,0.6,3.4,1.4,7.8,3.6c3.5-3.1,6.9-6.9,9-9.6h-21.5v8.7h-6.5V33.4h32v-7.2h-28.9v-5.6h28.9
			v-7.5l7.1,0.3c0.8,0,2.1,0.1,2.1,1.1c0,0.9-0.6,1.1-2.3,1.7v4.3h28.8v5.6H240v7.2h31.3v13.9h-6.5v-8.7h-28.2
			c1,0.4,1.4,0.9,1.4,1.4c0,1-1.8,0.9-2.9,0.8c-2.7,3.2-6.7,7.3-10,10.3c4.4,2.7,6.2,3.9,7.3,4.7c6.3-5.5,11.3-10.4,15.6-15.5
			l5.7,3.1c0.5,0.2,1,0.8,1,1.3c0,0.6-0.6,0.9-1.2,0.9s-1.2-0.1-1.8-0.2c-4.5,4.6-9.5,9.3-16.9,15c10.8-0.6,12-0.7,23-1.4
			c-1.7-2-2.8-3.3-6.2-6.7l5.1-3.5c2.4,2.4,9.6,9.6,15.7,19.9C270.5,69.8,269,70.7,266.9,72.5z M225,73.3c-0.3,0-0.6-0.1-1.1-0.2
			c-3.3,3.9-7.5,7.8-14.5,13.3c-1.8-1.8-3.9-3.2-5.3-4c7.5-5,11.6-8.9,16.3-14.3l5,2.8c0.5,0.2,1.2,0.7,1.2,1.3
			C226.6,73.3,225.4,73.3,225,73.3z M262.1,86.6c-6.1-5-11.7-11.8-14.7-15.9l5-3.1c5.4,6.6,9.1,10.4,15.2,14.9
			C264.7,84.1,263,85.7,262.1,86.6z"/>
	</g>
</g>
</svg>
