<?xml version="1.0" encoding="utf-8"?>
<!-- Generator: Adobe Illustrator 22.1.0, SVG Export Plug-In . SVG Version: 6.00 Build 0)  -->
<svg version="1.0" id="レイヤー_1" xmlns="http://www.w3.org/2000/svg" xmlns:xlink="http://www.w3.org/1999/xlink" x="0px"
	 y="0px" viewBox="0 0 623.4 39.5" style="enable-background:new 0 0 623.4 39.5;" xml:space="preserve">
<style type="text/css">
	.st0{fill:#FFFFFF;}
</style>
<g>
	<path class="st0" d="M19.6,8.8v29.7h-9V8.8H0V1.1h30.1v7.7H19.6z"/>
	<path class="st0" d="M71.5,19.6c0,3-0.5,5.7-1.5,8.1c-1,2.4-2.4,4.5-4.2,6.3c-1.8,1.7-4,3.1-6.5,4c-2.5,1-5.2,1.4-8.1,1.4
		c-2.9,0-5.6-0.5-8.1-1.4c-2.5-0.9-4.6-2.3-6.4-4c-1.8-1.7-3.2-3.8-4.2-6.3c-1-2.4-1.5-5.1-1.5-8.1c0-3,0.5-5.7,1.5-8.1
		c1-2.4,2.4-4.5,4.2-6.1c1.8-1.7,4-3,6.4-3.9c2.5-0.9,5.2-1.4,8.1-1.4c2.9,0,5.6,0.5,8.1,1.4c2.5,0.9,4.7,2.2,6.5,3.9
		c1.8,1.7,3.2,3.7,4.2,6.1C71,13.9,71.5,16.6,71.5,19.6z M61.8,19.6c0-1.6-0.3-3.1-0.8-4.5c-0.5-1.4-1.3-2.6-2.2-3.6
		c-0.9-1-2.1-1.8-3.4-2.4c-1.3-0.6-2.8-0.9-4.4-0.9c-1.6,0-3,0.3-4.3,0.9c-1.3,0.6-2.4,1.4-3.4,2.4c-0.9,1-1.7,2.2-2.2,3.6
		c-0.5,1.4-0.8,2.9-0.8,4.5c0,1.7,0.3,3.2,0.8,4.7c0.5,1.4,1.3,2.6,2.2,3.7c0.9,1,2,1.8,3.4,2.4c1.3,0.6,2.7,0.9,4.3,0.9
		c1.6,0,3-0.3,4.3-0.9c1.3-0.6,2.4-1.4,3.4-2.4c0.9-1,1.7-2.2,2.2-3.7C61.6,22.8,61.8,21.3,61.8,19.6z"/>
	<path class="st0" d="M92.1,22.6v15.8h-9V22.6L69,1.1H80l8,13.8l8-13.8h10.6L92.1,22.6z"/>
	<path class="st0" d="M129.5,38.4l-2.9-7.3h-14.5l-2.7,7.3h-9.8l15.7-37.4h8.8l15.5,37.4H129.5z M119.5,11l-4.7,12.8h9.4L119.5,11z"
		/>
	<path class="st0" d="M175.7,38.4l0.2-26.4h-0.2l-9.7,26.4h-6.3L150.3,12h-0.2l0.2,26.4h-8.5V1.1h12.8l8.5,24h0.2l8.1-24h13.1v37.4
		H175.7z"/>
	<path class="st0" d="M216.8,38.4l-2.9-7.3h-14.5l-2.7,7.3h-9.8l15.7-37.4h8.8l15.5,37.4H216.8z M206.8,11L202,23.9h9.4L206.8,11z"
		/>
	<path class="st0" d="M266.6,38.4V19.6h-25.1v18.8h-1.2V1.1h1.2v17.5h25.1V1.1h1.2v37.4H266.6z"/>
	<path class="st0" d="M314.1,19.7c0,2.9-0.5,5.5-1.5,7.9c-1,2.4-2.3,4.5-4,6.2c-1.7,1.7-3.7,3.1-6.1,4.1c-2.4,1-4.9,1.5-7.7,1.5
		c-2.7,0-5.3-0.5-7.7-1.5c-2.4-1-4.4-2.3-6.1-4.1c-1.7-1.7-3-3.8-4-6.2c-1-2.4-1.5-5.1-1.5-7.9c0-2.9,0.5-5.5,1.5-7.9
		c1-2.4,2.3-4.5,4-6.2c1.7-1.7,3.7-3.1,6.1-4.1c2.3-1,4.9-1.5,7.7-1.5c2.8,0,5.3,0.5,7.7,1.5c2.3,1,4.4,2.3,6.1,4.1s3,3.8,4,6.2
		C313.7,14.2,314.1,16.9,314.1,19.7z M313,19.7c0-2.6-0.4-5-1.3-7.3c-0.9-2.3-2.1-4.2-3.7-5.9c-1.6-1.7-3.5-3-5.7-4
		c-2.2-1-4.6-1.5-7.3-1.5c-2.6,0-5.1,0.5-7.3,1.5c-2.2,1-4.1,2.3-5.7,4c-1.6,1.7-2.8,3.7-3.7,5.9c-0.9,2.3-1.3,4.7-1.3,7.3
		c0,2.6,0.4,5,1.3,7.3c0.9,2.3,2.1,4.2,3.7,5.9c1.6,1.7,3.5,3,5.7,4c2.2,1,4.7,1.5,7.4,1.5c2.7,0,5.2-0.5,7.4-1.5
		c2.2-1,4.1-2.3,5.7-4c1.6-1.7,2.8-3.7,3.7-5.9C312.6,24.8,313,22.3,313,19.7z"/>
	<path class="st0" d="M357.5,38.4v-36h-0.2l-16.5,36h-1l-16.5-36h-0.2v36H322V1.1h2.1l16.3,35.7l16.3-35.7h2.1v37.4H357.5z"/>
	<path class="st0" d="M368.4,38.4V1.1h21.8v1.1h-20.6v16.4H389v1.1h-19.4v17.8h21.5v1.1H368.4z"/>
	<path class="st0" d="M419.2,10.3c0,1.6-0.3,3-0.9,4.2s-1.4,2.2-2.3,3c-1,0.8-2.1,1.4-3.5,1.8c-1.3,0.4-2.7,0.6-4.2,0.6h-9.7v18.4
		h-1.2V1.1h10.1c1.3,0,2.7,0.1,4.1,0.4c1.4,0.3,2.6,0.8,3.7,1.5c1.1,0.7,2,1.7,2.7,2.8C418.8,7.1,419.2,8.5,419.2,10.3z M418,10.3
		c0-1.6-0.3-2.9-0.9-4c-0.6-1.1-1.4-1.9-2.3-2.5s-2-1.1-3.2-1.4c-1.2-0.3-2.3-0.4-3.5-0.4h-9.4v17h9.7c1.2,0,2.3-0.2,3.5-0.5
		c1.2-0.3,2.2-0.8,3.1-1.5c0.9-0.7,1.7-1.6,2.2-2.7C417.7,13.2,418,11.9,418,10.3z"/>
	<path class="st0" d="M449.7,38.4l-4.4-10.7h-21.7L419,38.4h-1.3l16.2-37.4h1.5L451,38.4H449.7z M434.6,1.8L424,26.7h20.9L434.6,1.8
		z"/>
	<path class="st0" d="M480.3,38.5c-2.3,0.7-4.9,1-7.8,1c-3,0-5.7-0.5-8.1-1.5c-2.4-1-4.5-2.4-6.2-4.2c-1.7-1.8-3.1-3.9-4-6.3
		c-0.9-2.4-1.4-5-1.4-7.8c0-2.8,0.5-5.4,1.4-7.8c1-2.4,2.3-4.5,4-6.2c1.7-1.7,3.8-3.1,6.1-4.1c2.4-1,5-1.5,7.9-1.5
		c2.5,0,4.9,0.4,7,1.2c2.1,0.8,4,1.8,5.6,3.2L484,5.2c-0.7-0.7-1.5-1.3-2.5-1.8c-0.9-0.5-1.9-0.9-3-1.3c-1-0.4-2.1-0.6-3.2-0.8
		c-1.1-0.2-2.1-0.3-3.2-0.3c-2.7,0-5.2,0.5-7.5,1.5c-2.3,1-4.2,2.3-5.8,4c-1.6,1.7-2.8,3.7-3.7,5.9c-0.9,2.3-1.3,4.7-1.3,7.2
		c0,2.6,0.4,5,1.3,7.3c0.8,2.3,2.1,4.3,3.7,6c1.6,1.7,3.6,3.1,5.9,4c2.3,1,4.9,1.5,7.8,1.5c2.5,0,4.8-0.3,6.8-0.8
		c2-0.5,3.8-1.2,5.4-2V21H475v-1h10.9v16.3C484.4,37.1,482.6,37.8,480.3,38.5z"/>
	<path class="st0" d="M494.8,38.4V1.1h21.8v1.1h-20.6v16.4h19.4v1.1h-19.4v17.8h21.5v1.1H494.8z"/>
	<path class="st0" d="M524.9,38.7c-0.3,0-0.6-0.1-0.8-0.4c-0.2-0.2-0.4-0.6-0.4-1c0-0.4,0.1-0.7,0.4-1c0.2-0.2,0.5-0.4,0.8-0.4
		s0.6,0.1,0.8,0.4c0.2,0.2,0.4,0.6,0.4,1c0,0.4-0.1,0.8-0.4,1C525.4,38.6,525.1,38.7,524.9,38.7z"/>
	<path class="st0" d="M551.4,17.4c-0.9-1-2-1.7-3.2-2.2s-2.5-0.8-3.9-0.8c-1.7,0-3.3,0.3-4.6,1c-1.4,0.7-2.5,1.5-3.5,2.6
		c-1,1.1-1.7,2.4-2.2,3.8c-0.5,1.4-0.8,3-0.8,4.5c0,1.6,0.3,3.1,0.8,4.5c0.5,1.4,1.3,2.7,2.2,3.8c1,1.1,2.1,1.9,3.5,2.6
		c1.4,0.6,2.9,1,4.6,1c1.3,0,2.6-0.2,3.9-0.7c1.3-0.5,2.4-1.1,3.4-2.1l0.8,0.7c-1.1,1.1-2.3,1.8-3.7,2.3c-1.4,0.5-2.9,0.7-4.4,0.7
		c-1.8,0-3.4-0.3-4.9-0.9c-1.5-0.6-2.8-1.5-3.9-2.6c-1.1-1.1-2-2.5-2.6-4.1c-0.6-1.6-0.9-3.3-0.9-5.2c0-1.9,0.3-3.6,0.9-5.2
		c0.6-1.6,1.5-2.9,2.6-4.1c1.1-1.1,2.4-2,3.9-2.7c1.5-0.7,3.1-1,4.9-1c1.5,0,3,0.3,4.4,0.8c1.4,0.6,2.6,1.4,3.6,2.4L551.4,17.4z"/>
	<path class="st0" d="M580.4,26.2c0,1.9-0.3,3.6-0.9,5.2c-0.6,1.6-1.5,2.9-2.6,4.1c-1.1,1.1-2.5,2-4,2.7c-1.6,0.6-3.3,0.9-5.1,0.9
		c-1.9,0-3.6-0.3-5.1-0.9c-1.5-0.6-2.9-1.5-4-2.7c-1.1-1.1-2-2.5-2.6-4.1c-0.6-1.6-0.9-3.3-0.9-5.2s0.3-3.6,0.9-5.2
		c0.6-1.6,1.5-2.9,2.6-4c1.1-1.1,2.5-2,4-2.6c1.5-0.6,3.3-1,5.1-1c1.9,0,3.6,0.3,5.1,1c1.6,0.6,2.9,1.5,4,2.6c1.1,1.1,2,2.5,2.6,4
		C580.1,22.6,580.4,24.3,580.4,26.2z M579.2,26.2c0-1.6-0.3-3.1-0.8-4.6c-0.5-1.4-1.3-2.7-2.3-3.8c-1-1.1-2.2-1.9-3.6-2.5
		c-1.4-0.6-3-0.9-4.8-0.9c-1.8,0-3.4,0.3-4.8,0.9c-1.4,0.6-2.6,1.5-3.6,2.5c-1,1.1-1.8,2.3-2.3,3.8c-0.5,1.4-0.8,3-0.8,4.6
		c0,1.7,0.3,3.2,0.8,4.6c0.5,1.4,1.3,2.7,2.3,3.8s2.2,1.9,3.6,2.6c1.4,0.6,3,1,4.8,1c1.8,0,3.4-0.3,4.8-1c1.4-0.6,2.6-1.5,3.6-2.6
		c1-1.1,1.8-2.3,2.3-3.8C579,29.4,579.2,27.9,579.2,26.2z"/>
	<path class="st0" d="M605.5,20.8c0.7-2.4,1.9-4.2,3.6-5.5c1.7-1.3,3.6-1.9,5.8-1.9c1.6,0,3,0.3,4.1,0.9c1.1,0.6,2,1.4,2.6,2.4
		c0.7,1,1.1,2.1,1.4,3.3c0.3,1.2,0.4,2.5,0.4,3.7v14.7h-1.2V23.9c0-1-0.1-2-0.3-3.2c-0.2-1.1-0.6-2.1-1.2-3.1
		c-0.6-0.9-1.3-1.7-2.3-2.3c-0.9-0.6-2.1-0.9-3.6-0.9c-1.3,0-2.5,0.3-3.6,0.8c-1.1,0.5-2.1,1.3-2.9,2.3c-0.8,1-1.5,2.3-2,3.7
		c-0.5,1.5-0.7,3.1-0.7,5v12.1h-1.2V23.9c0-1-0.1-2-0.3-3.2c-0.2-1.1-0.6-2.1-1.1-3.1c-0.5-0.9-1.3-1.7-2.2-2.3
		c-0.9-0.6-2.1-0.9-3.6-0.9c-1.3,0-2.5,0.3-3.6,0.8c-1.1,0.5-2.1,1.3-2.9,2.3c-0.8,1-1.5,2.3-2,3.7c-0.5,1.5-0.7,3.1-0.7,5v12.1
		h-1.2V20.3c0-0.4,0-0.9,0-1.4c0-0.6,0-1.1-0.1-1.7s0-1.1-0.1-1.7c0-0.5-0.1-1-0.1-1.3h1.2c0,0.4,0.1,0.8,0.1,1.3
		c0,0.5,0,1.1,0.1,1.7c0,0.6,0,1.2,0.1,1.8s0,1.1,0,1.6h0.1c0.4-1.1,0.8-2.1,1.5-3c0.6-0.9,1.3-1.6,2.1-2.2c0.8-0.6,1.7-1.1,2.6-1.4
		c0.9-0.3,1.9-0.5,2.9-0.5c1.3,0,2.4,0.2,3.3,0.6c0.9,0.4,1.7,0.9,2.3,1.6c0.6,0.7,1.1,1.5,1.5,2.3c0.4,0.9,0.7,1.9,0.8,2.9H605.5z"
		/>
</g>
</svg>
